<mxfile host="Electron" modified="2023-05-22T09:59:52.298Z" agent="Mozilla/5.0 (Windows NT 10.0; Win64; x64) AppleWebKit/537.36 (KHTML, like Gecko) draw.io/21.2.8 Chrome/112.0.5615.165 Electron/24.2.0 Safari/537.36" etag="7mFg6DTLFn0-eCUD2k30" version="21.2.8" type="device">
  <diagram name="Pagina-1" id="g53WusHoJIEjaeVgip_c">
    <mxGraphModel dx="692" dy="-556" grid="1" gridSize="10" guides="1" tooltips="1" connect="1" arrows="1" fold="1" page="1" pageScale="1" pageWidth="827" pageHeight="1169" math="0" shadow="0">
      <root>
        <mxCell id="0" />
        <mxCell id="1" parent="0" />
        <mxCell id="9FkcLExG0YteVz--1y22-1" value="&lt;p style=&quot;text-indent: -18pt; font-size: 13px;&quot; class=&quot;MsoListParagraph&quot;&gt;&lt;b&gt;5.&lt;span style=&quot;line-height: 107%;&quot;&gt;&lt;/span&gt;&lt;/b&gt;&lt;b&gt;&lt;span style=&quot;line-height: 107%;&quot;&gt;setTurnoSaturo(turno: Turno, saturo: si/no)&lt;/span&gt;&lt;/b&gt;&lt;/p&gt;" style="text;whiteSpace=wrap;html=1;" parent="1" vertex="1">
          <mxGeometry x="610" y="2050" width="260" height="40" as="geometry" />
        </mxCell>
        <mxCell id="9FkcLExG0YteVz--1y22-2" style="edgeStyle=orthogonalEdgeStyle;rounded=0;orthogonalLoop=1;jettySize=auto;html=1;exitX=0.5;exitY=1;exitDx=0;exitDy=0;endArrow=none;endFill=0;dashed=1;entryX=0.02;entryY=1.003;entryDx=0;entryDy=0;entryPerimeter=0;exitPerimeter=0;" parent="1" source="9FkcLExG0YteVz--1y22-3" edge="1">
          <mxGeometry relative="1" as="geometry">
            <mxPoint x="85" y="3514" as="targetPoint" />
            <mxPoint x="85" y="2250" as="sourcePoint" />
          </mxGeometry>
        </mxCell>
        <mxCell id="9FkcLExG0YteVz--1y22-3" value="UI" style="shape=folder;fontStyle=1;spacingTop=10;tabWidth=40;tabHeight=14;tabPosition=left;html=1;whiteSpace=wrap;fillColor=#fff2cc;strokeColor=#d6b656;" parent="1" vertex="1">
          <mxGeometry x="50" y="2110" width="70" height="50" as="geometry" />
        </mxCell>
        <mxCell id="9FkcLExG0YteVz--1y22-5" value="taskManager:KitchenTaskManager" style="html=1;whiteSpace=wrap;fillColor=#fff2cc;strokeColor=#d6b656;" parent="1" vertex="1">
          <mxGeometry x="275" y="2120" width="200" height="30" as="geometry" />
        </mxCell>
        <mxCell id="9FkcLExG0YteVz--1y22-6" style="edgeStyle=orthogonalEdgeStyle;rounded=0;orthogonalLoop=1;jettySize=auto;html=1;exitX=0.5;exitY=1;exitDx=0;exitDy=0;endArrow=none;endFill=0;dashed=1;entryX=0.02;entryY=1.003;entryDx=0;entryDy=0;entryPerimeter=0;exitPerimeter=0;" parent="1" edge="1">
          <mxGeometry relative="1" as="geometry">
            <mxPoint x="380" y="3507" as="targetPoint" />
            <mxPoint x="380" y="2153" as="sourcePoint" />
          </mxGeometry>
        </mxCell>
        <mxCell id="9FkcLExG0YteVz--1y22-8" value="turnListener: TurnManager" style="html=1;whiteSpace=wrap;fillColor=#fff2cc;strokeColor=#d6b656;" parent="1" vertex="1">
          <mxGeometry x="550" y="2120" width="160" height="30" as="geometry" />
        </mxCell>
        <mxCell id="9FkcLExG0YteVz--1y22-9" style="edgeStyle=orthogonalEdgeStyle;rounded=0;orthogonalLoop=1;jettySize=auto;html=1;exitX=0.5;exitY=1;exitDx=0;exitDy=0;endArrow=none;endFill=0;dashed=1;entryX=0.02;entryY=1.003;entryDx=0;entryDy=0;entryPerimeter=0;exitPerimeter=0;" parent="1" edge="1">
          <mxGeometry relative="1" as="geometry">
            <mxPoint x="629.29" y="3504" as="targetPoint" />
            <mxPoint x="629.29" y="2150" as="sourcePoint" />
          </mxGeometry>
        </mxCell>
        <mxCell id="9FkcLExG0YteVz--1y22-41" value="turn: Turn" style="html=1;whiteSpace=wrap;fillColor=#fff2cc;strokeColor=#d6b656;" parent="1" vertex="1">
          <mxGeometry x="800" y="2120" width="160" height="30" as="geometry" />
        </mxCell>
        <mxCell id="9FkcLExG0YteVz--1y22-42" value="setTurnExhausted(turn,flag)" style="html=1;verticalAlign=bottom;endArrow=block;edgeStyle=elbowEdgeStyle;elbow=vertical;curved=0;rounded=0;" parent="1" edge="1">
          <mxGeometry width="80" relative="1" as="geometry">
            <mxPoint x="90" y="2200.18" as="sourcePoint" />
            <mxPoint x="370" y="2200" as="targetPoint" />
          </mxGeometry>
        </mxCell>
        <mxCell id="9FkcLExG0YteVz--1y22-43" value="setTurnExhausted(turn,flag)" style="html=1;verticalAlign=bottom;endArrow=block;edgeStyle=elbowEdgeStyle;elbow=vertical;curved=0;rounded=0;" parent="1" edge="1">
          <mxGeometry x="-0.6783" width="80" relative="1" as="geometry">
            <mxPoint x="380" y="2220.3599999999997" as="sourcePoint" />
            <mxPoint x="880" y="2220" as="targetPoint" />
            <mxPoint as="offset" />
          </mxGeometry>
        </mxCell>
        <mxCell id="9FkcLExG0YteVz--1y22-44" style="edgeStyle=orthogonalEdgeStyle;rounded=0;orthogonalLoop=1;jettySize=auto;html=1;exitX=0.5;exitY=1;exitDx=0;exitDy=0;endArrow=none;endFill=0;dashed=1;entryX=0.02;entryY=1.003;entryDx=0;entryDy=0;entryPerimeter=0;exitPerimeter=0;" parent="1" edge="1">
          <mxGeometry relative="1" as="geometry">
            <mxPoint x="879.55" y="3504" as="targetPoint" />
            <mxPoint x="879.55" y="2150" as="sourcePoint" />
          </mxGeometry>
        </mxCell>
        <mxCell id="9FkcLExG0YteVz--1y22-46" value="this.exhausted = flag" style="html=1;align=left;spacingLeft=2;endArrow=block;rounded=0;edgeStyle=orthogonalEdgeStyle;curved=0;rounded=0;" parent="1" edge="1">
          <mxGeometry relative="1" as="geometry">
            <mxPoint x="880" y="2230" as="sourcePoint" />
            <Array as="points">
              <mxPoint x="910" y="2260" />
            </Array>
            <mxPoint x="885" y="2260" as="targetPoint" />
          </mxGeometry>
        </mxCell>
        <mxCell id="9FkcLExG0YteVz--1y22-47" value="turn" style="html=1;verticalAlign=bottom;endArrow=open;dashed=1;endSize=8;edgeStyle=elbowEdgeStyle;elbow=vertical;curved=0;rounded=0;" parent="1" edge="1">
          <mxGeometry x="0.8394" relative="1" as="geometry">
            <mxPoint x="880" y="2270.18" as="sourcePoint" />
            <mxPoint x="380" y="2270" as="targetPoint" />
            <mxPoint as="offset" />
          </mxGeometry>
        </mxCell>
        <mxCell id="9FkcLExG0YteVz--1y22-48" value="&lt;font style=&quot;font-size: 10px;&quot;&gt;LOOP:for all turnListenerr in eventReceiver&lt;/font&gt;" style="shape=umlFrame;whiteSpace=wrap;html=1;pointerEvents=0;width=210;height=20;" parent="1" vertex="1">
          <mxGeometry x="490" y="2349" width="230" height="101" as="geometry" />
        </mxCell>
        <mxCell id="9FkcLExG0YteVz--1y22-49" value="notifyExhaustedTurn(turn)" style="html=1;align=left;spacingLeft=2;endArrow=block;rounded=0;edgeStyle=orthogonalEdgeStyle;curved=0;rounded=0;" parent="1" edge="1">
          <mxGeometry x="-1" relative="1" as="geometry">
            <mxPoint x="382.5" y="2300" as="sourcePoint" />
            <Array as="points">
              <mxPoint x="400" y="2300" />
              <mxPoint x="400" y="2300" />
            </Array>
            <mxPoint x="530" y="2300" as="targetPoint" />
            <mxPoint as="offset" />
          </mxGeometry>
        </mxCell>
        <mxCell id="9FkcLExG0YteVz--1y22-50" value="updateExhaustedTurn(turn)" style="html=1;verticalAlign=bottom;endArrow=block;edgeStyle=elbowEdgeStyle;elbow=vertical;curved=0;rounded=0;align=center;" parent="1" target="9FkcLExG0YteVz--1y22-51" edge="1">
          <mxGeometry x="-0.3026" width="80" relative="1" as="geometry">
            <mxPoint x="530" y="2390.3199999999997" as="sourcePoint" />
            <mxPoint x="897.5" y="2390.08" as="targetPoint" />
            <mxPoint as="offset" />
            <Array as="points">
              <mxPoint x="677.5" y="2390.08" />
            </Array>
          </mxGeometry>
        </mxCell>
        <mxCell id="9FkcLExG0YteVz--1y22-51" value="" style="html=1;points=[];perimeter=orthogonalPerimeter;outlineConnect=0;targetShapes=umlLifeline;portConstraint=eastwest;newEdgeStyle={&quot;edgeStyle&quot;:&quot;elbowEdgeStyle&quot;,&quot;elbow&quot;:&quot;vertical&quot;,&quot;curved&quot;:0,&quot;rounded&quot;:0};shadow=0;imageAspect=1;fillOpacity=50;strokeOpacity=50;" parent="1" vertex="1">
          <mxGeometry x="625" y="2390" width="15" height="31" as="geometry" />
        </mxCell>
        <mxCell id="9FkcLExG0YteVz--1y22-52" value="turn" style="html=1;verticalAlign=bottom;endArrow=open;dashed=1;endSize=8;edgeStyle=elbowEdgeStyle;elbow=vertical;curved=0;rounded=0;" parent="1" edge="1">
          <mxGeometry x="0.8394" relative="1" as="geometry">
            <mxPoint x="370" y="2450" as="sourcePoint" />
            <mxPoint x="90" y="2450.33" as="targetPoint" />
            <mxPoint as="offset" />
          </mxGeometry>
        </mxCell>
        <mxCell id="s1p8xdk3vRcx3nbhD5g_-1" value="" style="html=1;points=[];perimeter=orthogonalPerimeter;outlineConnect=0;targetShapes=umlLifeline;portConstraint=eastwest;newEdgeStyle={&quot;edgeStyle&quot;:&quot;elbowEdgeStyle&quot;,&quot;elbow&quot;:&quot;vertical&quot;,&quot;curved&quot;:0,&quot;rounded&quot;:0};shadow=0;imageAspect=1;fillOpacity=50;strokeOpacity=50;" parent="1" vertex="1">
          <mxGeometry x="872.5" y="2220" width="15" height="50" as="geometry" />
        </mxCell>
        <mxCell id="s1p8xdk3vRcx3nbhD5g_-2" value="" style="html=1;points=[];perimeter=orthogonalPerimeter;outlineConnect=0;targetShapes=umlLifeline;portConstraint=eastwest;newEdgeStyle={&quot;edgeStyle&quot;:&quot;elbowEdgeStyle&quot;,&quot;elbow&quot;:&quot;vertical&quot;,&quot;curved&quot;:0,&quot;rounded&quot;:0};shadow=0;imageAspect=1;fillOpacity=50;strokeOpacity=50;" parent="1" vertex="1">
          <mxGeometry x="370" y="2200" width="15" height="250" as="geometry" />
        </mxCell>
        <mxCell id="U4UvBOfC68RgShQ8j7ed-1" value="turnManager: TurnManger" style="html=1;whiteSpace=wrap;fillColor=#fff2cc;strokeColor=#d6b656;" vertex="1" parent="1">
          <mxGeometry x="430" y="2010" width="200" height="30" as="geometry" />
        </mxCell>
        <mxCell id="U4UvBOfC68RgShQ8j7ed-2" style="edgeStyle=orthogonalEdgeStyle;rounded=0;orthogonalLoop=1;jettySize=auto;html=1;exitX=0.5;exitY=1;exitDx=0;exitDy=0;endArrow=none;endFill=0;dashed=1;entryX=0.02;entryY=1.003;entryDx=0;entryDy=0;entryPerimeter=0;exitPerimeter=0;" edge="1" parent="1">
          <mxGeometry relative="1" as="geometry">
            <mxPoint x="529.29" y="3394" as="targetPoint" />
            <mxPoint x="529.29" y="2040" as="sourcePoint" />
          </mxGeometry>
        </mxCell>
        <mxCell id="U4UvBOfC68RgShQ8j7ed-3" value="" style="html=1;points=[];perimeter=orthogonalPerimeter;outlineConnect=0;targetShapes=umlLifeline;portConstraint=eastwest;newEdgeStyle={&quot;edgeStyle&quot;:&quot;elbowEdgeStyle&quot;,&quot;elbow&quot;:&quot;vertical&quot;,&quot;curved&quot;:0,&quot;rounded&quot;:0};shadow=0;imageAspect=1;fillOpacity=50;strokeOpacity=50;" vertex="1" parent="1">
          <mxGeometry x="522.5" y="2300" width="15" height="150" as="geometry" />
        </mxCell>
      </root>
    </mxGraphModel>
  </diagram>
</mxfile>
